# xmcd
#
# Track frame offsets:
# 150
# 14075
# 27747
# 42593
# 56145
# 68391
# 81538
# 97677
# 112190
# 126778
#
# Disc length: 1860 seconds
#
#
# Revision: 1
# Processed by: cddbd v1.5.1PL2 Copyright (c) Steve Scherf et al.
# Submitted via: FreeRIP 2.944 
#
DISCID=8d07420a
DTITLE=Deryl Dodd - Stronger Proof
DYEAR=2004
DGENRE=Country
TTITLE0=Never Again
TTITLE1=Stronger Proof
TTITLE2=Somethin' Ain't Always Better( (Than Nothin')
TTITLE3=Outside Lookin' In
TTITLE4=More Of The Same
TTITLE5=Love Or Something Like It
TTITLE6=She Does The Best She Can
TTITLE7=Livin' Where You Told  Me To Go
TTITLE8=Let Me Be
TTITLE9=The Crowd
EXTD=
EXTT0=
EXTT1=
EXTT2=
EXTT3=
EXTT4=
EXTT5=
EXTT6=
EXTT7=
EXTT8=
EXTT9=
PLAYORDER=
